<?xml version="1.0" encoding="utf-8"?>
<!-- Generator: Adobe Illustrator 19.0.0, SVG Export Plug-In . SVG Version: 6.00 Build 0)  -->
<svg version="1.1" id="Layer_1" xmlns="http://www.w3.org/2000/svg" xmlns:xlink="http://www.w3.org/1999/xlink" x="0px" y="0px"
	 viewBox="0 0 422 141.3" style="enable-background:new 0 0 422 141.3;" xml:space="preserve">
<style type="text/css">
	.st0{fill:#999999;}
	.st1{fill:#8E4238;}
	.st2{fill:#C67741;}
	.st3{fill:#F9EBDB;}
	.st4{fill:#E8D6BD;}
	.st5{fill:#FFFFFF;}
	.st6{fill:#700D00;}
	.st7{display:none;fill:none;stroke:#111111;stroke-width:4;stroke-miterlimit:10;}
</style>
<g id="XMLID_1_">
	<path id="XMLID_140_" d="M126.8,78.3c-3.1,0-5.9-0.8-8.5-2.5s-4.6-3.9-6-6.8c-1.5-2.9-2.2-6.1-2.2-9.6v-1.6c0-3.5,0.7-6.7,2.1-9.7
		s3.3-5.2,5.8-6.9s5.1-2.5,8.1-2.5c4.2,0,7.7,1.5,10.4,4.5c2.7,3,4,7,4,11.9v2H112v2.1c0,3.1,0.7,5.9,2,8.6s3.1,4.7,5.4,6.2
		c2.3,1.5,4.8,2.2,7.4,2.2c2.6,0,4.7-0.4,6.5-1.3s3.4-2.2,4.8-3.9l1.3,0.9C136.6,76.2,132.4,78.3,126.8,78.3z M126.1,40.7
		c-3.7,0-6.8,1.4-9.4,4.1c-2.6,2.8-4.1,6.3-4.5,10.5h26.5v-0.5c0-2.6-0.5-5-1.6-7.2s-2.6-3.9-4.5-5.2
		C130.6,41.4,128.5,40.7,126.1,40.7z"/>
	<path id="XMLID_143_" d="M151.3,48.4c1.2-3,3.1-5.3,5.5-7c2.4-1.7,5.1-2.6,8-2.6c4.1,0,7.1,1.2,9.1,3.5c2,2.3,3,5.8,3,10.5v24.8
		H175V52.7c0-4.1-0.9-7.1-2.5-9c-1.6-2-4.2-2.9-7.8-2.9c-3.3,0-6.1,1.2-8.5,3.5c-2.4,2.3-4,5.3-4.9,9v24.3h-1.9v-38h1.9V48.4z"/>
	<path id="XMLID_145_" d="M188.7,77.6V47.8h-5.5v-8.2h5.5v-3c0-4.3,1.3-7.7,3.8-10.1c2.6-2.4,6.1-3.6,10.8-3.6
		c1.7,0,3.5,0.2,5.6,0.7l0,8.7c-0.7-0.2-1.7-0.3-2.9-0.3c-3.6,0-5.4,1.5-5.4,4.6v2.9h7.4v8.2h-7.4v29.8H188.7z"/>
	<path id="XMLID_147_" d="M235.2,50.3l-3.9-0.3c-3.7,0-6.1,1.2-7.2,3.5v24.1h-11.8v-38h11.1l0.4,4.9c2-3.7,4.8-5.6,8.3-5.6
		c1.3,0,2.4,0.1,3.3,0.4L235.2,50.3z"/>
	<path id="XMLID_149_" d="M259.8,77.6c-0.4-0.8-0.8-1.9-1.1-3.4c-2.2,2.7-5.2,4.1-9.1,4.1c-3.6,0-6.6-1.1-9.1-3.3s-3.8-4.9-3.8-8.2
		c0-4.1,1.5-7.2,4.6-9.4s7.5-3.2,13.3-3.2h3.7v-2c0-3.5-1.5-5.3-4.5-5.3c-2.8,0-4.2,1.4-4.2,4.2h-11.8c0-3.7,1.6-6.7,4.7-9
		s7.1-3.4,12-3.4s8.7,1.2,11.5,3.6s4.3,5.6,4.3,9.7V69c0,3.5,0.6,6.2,1.6,8v0.6H259.8z M252.4,69.9c1.5,0,2.7-0.3,3.7-0.9
		s1.7-1.3,2.1-2.1v-6.1h-3.4c-4.1,0-6.2,1.9-6.2,5.6c0,1.1,0.4,2,1.1,2.6S251.3,69.9,252.4,69.9z"/>
	<path id="XMLID_152_" d="M311.9,58.8c0,5.9-1.3,10.6-4,14.2s-6.3,5.3-10.8,5.3c-3.5,0-6.4-1.3-8.6-3.8v17.8h-11.8V39.5h11.1
		l0.4,3.5c2.3-2.8,5.3-4.2,9-4.2c4.7,0,8.3,1.7,10.9,5.2s3.9,8.2,3.9,14.3V58.8z M300.1,58.1c0-6.8-2-10.1-5.9-10.1
		c-2.8,0-4.7,1-5.6,3v15c1,2.1,2.9,3.2,5.7,3.2c3.8,0,5.7-3.3,5.8-9.8V58.1z"/>
	<path id="XMLID_155_" d="M352.5,58.8c0,5.9-1.3,10.6-4,14.2s-6.3,5.3-10.8,5.3c-3.5,0-6.4-1.3-8.6-3.8v17.8h-11.8V39.5h11.1
		l0.4,3.5c2.3-2.8,5.3-4.2,9-4.2c4.7,0,8.3,1.7,10.9,5.2s3.9,8.2,3.9,14.3V58.8z M340.6,58.1c0-6.8-2-10.1-5.9-10.1
		c-2.8,0-4.7,1-5.6,3v15c1,2.1,2.9,3.2,5.7,3.2c3.8,0,5.7-3.3,5.8-9.8V58.1z"/>
	<path id="XMLID_158_" d="M376.1,78.3c-5.8,0-10.6-1.7-14.2-5.2s-5.4-8-5.4-13.6v-1c0-3.9,0.7-7.3,2.2-10.3s3.5-5.3,6.3-6.9
		s6-2.4,9.8-2.4c5.3,0,9.6,1.7,12.7,5s4.6,7.9,4.6,13.9v4.6h-23.6c0.4,2.1,1.3,3.8,2.8,5s3.3,1.8,5.6,1.8c3.8,0,6.7-1.3,8.8-3.9
		l5.4,6.4c-1.5,2-3.6,3.7-6.3,4.9S379.2,78.3,376.1,78.3z M374.8,48c-3.5,0-5.5,2.3-6.2,6.9h12V54c0-1.9-0.4-3.4-1.4-4.4
		S376.6,48,374.8,48z"/>
	<path id="XMLID_161_" class="st0" d="M121.1,123.6c-0.2-0.6-0.3-1.5-0.4-2.7c-0.7,1-1.7,1.7-2.8,2.2s-2.4,0.8-3.6,0.8
		c-1.8,0-3.3-0.5-4.4-1.5s-1.7-2.3-1.7-3.9c0-1.9,0.8-3.3,2.3-4.4s3.7-1.6,6.4-1.6h3.8v-2.2c0-1.4-0.4-2.4-1.3-3.2s-2.1-1.2-3.7-1.2
		c-1.5,0-2.7,0.4-3.6,1.1s-1.4,1.7-1.4,2.7l-2.1,0c0-1.5,0.7-2.8,2.1-3.9s3.1-1.7,5.2-1.7c2.1,0,3.8,0.5,5,1.6s1.9,2.5,1.9,4.4v9
		c0,1.8,0.2,3.2,0.6,4.1v0.2H121.1z M114.4,122.1c1.4,0,2.7-0.3,3.8-1s1.9-1.6,2.4-2.7v-4.2h-3.8c-2.1,0-3.7,0.4-4.9,1.2
		s-1.8,1.8-1.8,3.1c0,1.1,0.4,2,1.2,2.7S113.2,122.1,114.4,122.1z"/>
	<path id="XMLID_164_" class="st0" d="M143.6,114.3c0,3-0.7,5.3-2,7.1s-3.1,2.6-5.3,2.6c-2.6,0-4.6-0.9-6-2.7v9.7h-2.1v-26.3h2
		l0.1,2.7c1.4-2,3.4-3,6-3c2.3,0,4.1,0.9,5.4,2.6s1.9,4.1,1.9,7.2V114.3z M141.5,113.9c0-2.4-0.5-4.3-1.5-5.7s-2.4-2.1-4.2-2.1
		c-1.3,0-2.4,0.3-3.3,0.9s-1.6,1.5-2.1,2.7v9.1c0.5,1.1,1.2,1.9,2.2,2.5s2,0.9,3.3,0.9c1.8,0,3.1-0.7,4.1-2.1
		S141.5,116.6,141.5,113.9z"/>
	<path id="XMLID_167_" class="st0" d="M163.6,114.3c0,3-0.7,5.3-2,7.1s-3.1,2.6-5.3,2.6c-2.6,0-4.6-0.9-6-2.7v9.7h-2.1v-26.3h2
		l0.1,2.7c1.4-2,3.4-3,6-3c2.3,0,4.1,0.9,5.4,2.6s1.9,4.1,1.9,7.2V114.3z M161.5,113.9c0-2.4-0.5-4.3-1.5-5.7s-2.4-2.1-4.2-2.1
		c-1.3,0-2.4,0.3-3.3,0.9s-1.6,1.5-2.1,2.7v9.1c0.5,1.1,1.2,1.9,2.2,2.5s2,0.9,3.3,0.9c1.8,0,3.1-0.7,4.1-2.1
		S161.5,116.6,161.5,113.9z"/>
	<path id="XMLID_170_" class="st0" d="M170.6,123.6h-2.1v-27h2.1V123.6z"/>
	<path id="XMLID_172_" class="st0" d="M176.2,99.1c0-0.4,0.1-0.7,0.4-1c0.3-0.3,0.6-0.4,1.1-0.4s0.8,0.1,1.1,0.4
		c0.3,0.3,0.4,0.6,0.4,1s-0.1,0.7-0.4,1c-0.3,0.3-0.6,0.4-1.1,0.4s-0.8-0.1-1.1-0.4C176.3,99.8,176.2,99.5,176.2,99.1z M178.7,123.6
		h-2.1v-19h2.1V123.6z"/>
	<path id="XMLID_175_" class="st0" d="M191.4,122.2c1.5,0,2.7-0.4,3.7-1.2s1.5-1.9,1.6-3.2h2c-0.1,1.2-0.4,2.2-1.1,3.2
		s-1.6,1.7-2.7,2.2s-2.3,0.8-3.6,0.8c-2.5,0-4.5-0.9-5.9-2.6s-2.2-4.1-2.2-7v-0.6c0-1.9,0.3-3.5,1-5s1.6-2.6,2.8-3.3
		s2.7-1.2,4.3-1.2c2.1,0,3.8,0.6,5.2,1.9s2.1,2.9,2.2,4.9h-2c-0.1-1.5-0.6-2.7-1.6-3.6s-2.2-1.4-3.7-1.4c-1.9,0-3.4,0.7-4.4,2.1
		s-1.6,3.3-1.6,5.8v0.6c0,2.4,0.5,4.3,1.6,5.7S189.5,122.2,191.4,122.2z"/>
	<path id="XMLID_177_" class="st0" d="M214.9,123.6c-0.2-0.6-0.3-1.5-0.4-2.7c-0.7,1-1.7,1.7-2.8,2.2s-2.4,0.8-3.6,0.8
		c-1.8,0-3.3-0.5-4.4-1.5s-1.7-2.3-1.7-3.9c0-1.9,0.8-3.3,2.3-4.4s3.7-1.6,6.4-1.6h3.8v-2.2c0-1.4-0.4-2.4-1.3-3.2s-2.1-1.2-3.7-1.2
		c-1.5,0-2.7,0.4-3.6,1.1s-1.4,1.7-1.4,2.7l-2.1,0c0-1.5,0.7-2.8,2.1-3.9s3.1-1.7,5.2-1.7c2.1,0,3.8,0.5,5,1.6s1.9,2.5,1.9,4.4v9
		c0,1.8,0.2,3.2,0.6,4.1v0.2H214.9z M208.3,122.1c1.4,0,2.7-0.3,3.8-1s1.9-1.6,2.4-2.7v-4.2h-3.8c-2.1,0-3.7,0.4-4.9,1.2
		s-1.8,1.8-1.8,3.1c0,1.1,0.4,2,1.2,2.7S207,122.1,208.3,122.1z"/>
	<path id="XMLID_180_" class="st0" d="M225.5,99.7v4.9h3.9v1.7h-3.9V119c0,1.1,0.2,1.8,0.6,2.4c0.4,0.5,1,0.8,1.9,0.8
		c0.4,0,0.9-0.1,1.7-0.2l0.1,1.7c-0.6,0.2-1.3,0.3-2.3,0.3c-1.4,0-2.5-0.4-3.1-1.3s-1-2.1-1-3.7v-12.7h-3.5v-1.7h3.5v-4.9H225.5z"/>
	<path id="XMLID_182_" class="st0" d="M233.6,99.1c0-0.4,0.1-0.7,0.4-1c0.3-0.3,0.6-0.4,1.1-0.4s0.8,0.1,1.1,0.4
		c0.3,0.3,0.4,0.6,0.4,1s-0.1,0.7-0.4,1c-0.3,0.3-0.6,0.4-1.1,0.4s-0.8-0.1-1.1-0.4C233.8,99.8,233.6,99.5,233.6,99.1z M236.1,123.6
		H234v-19h2.1V123.6z"/>
	<path id="XMLID_185_" class="st0" d="M240.7,113.8c0-1.8,0.4-3.5,1.1-4.9s1.7-2.6,3-3.4s2.8-1.2,4.4-1.2c2.5,0,4.6,0.9,6.2,2.7
		s2.4,4.1,2.4,7.1v0.4c0,1.8-0.4,3.5-1.1,5s-1.7,2.6-3,3.4s-2.8,1.2-4.4,1.2c-2.5,0-4.6-0.9-6.1-2.7s-2.4-4.1-2.4-7.1V113.8z
		 M242.8,114.4c0,2.3,0.6,4.1,1.8,5.6s2.7,2.2,4.6,2.2c1.9,0,3.4-0.7,4.6-2.2s1.8-3.4,1.8-5.8v-0.4c0-1.5-0.3-2.8-0.8-4
		s-1.3-2.1-2.3-2.8s-2.1-1-3.3-1c-1.9,0-3.4,0.7-4.6,2.2s-1.8,3.4-1.8,5.8V114.4z"/>
	<path id="XMLID_188_" class="st0" d="M264,104.6l0.1,3.3c0.7-1.2,1.6-2.1,2.7-2.7s2.2-0.9,3.5-0.9c2,0,3.6,0.6,4.6,1.7
		s1.5,2.9,1.5,5.2v12.5h-2.1v-12.5c0-1.7-0.4-3-1.1-3.8s-1.8-1.2-3.4-1.2c-1.3,0-2.5,0.4-3.5,1.2s-1.7,1.9-2.2,3.3v13H262v-19H264z"
		/>
	<path id="XMLID_190_" class="st0" d="M305.8,114.3c0,3-0.7,5.3-2,7.1s-3.1,2.6-5.3,2.6c-2.6,0-4.7-1-6-3l-0.1,2.6h-2v-27h2.1v10.7
		c1.3-2.1,3.3-3.1,5.9-3.1c2.3,0,4,0.9,5.3,2.6s2,4.1,2,7.2V114.3z M303.7,113.9c0-2.5-0.5-4.4-1.5-5.8s-2.3-2-4.1-2
		c-1.3,0-2.5,0.3-3.4,1s-1.6,1.6-2.1,2.9v8.6c1.1,2.4,2.9,3.6,5.6,3.6c1.7,0,3.1-0.7,4.1-2.1S303.7,116.6,303.7,113.9z"/>
	<path id="XMLID_193_" class="st0" d="M322.7,121.2c-1.3,1.8-3.3,2.8-6.1,2.8c-2,0-3.6-0.6-4.6-1.8s-1.6-2.9-1.6-5.2v-12.4h2.1v12.1
		c0,3.6,1.5,5.4,4.4,5.4c3,0,5-1.3,5.8-3.8v-13.8h2.1v19h-2L322.7,121.2z"/>
	<path id="XMLID_195_" class="st0" d="M330.1,99.1c0-0.4,0.1-0.7,0.4-1c0.3-0.3,0.6-0.4,1.1-0.4s0.8,0.1,1.1,0.4
		c0.3,0.3,0.4,0.6,0.4,1s-0.1,0.7-0.4,1c-0.3,0.3-0.6,0.4-1.1,0.4s-0.8-0.1-1.1-0.4C330.3,99.8,330.1,99.5,330.1,99.1z M332.6,123.6
		h-2.1v-19h2.1V123.6z"/>
	<path id="XMLID_198_" class="st0" d="M340.7,123.6h-2.1v-27h2.1V123.6z"/>
	<path id="XMLID_200_" class="st0" d="M345.5,113.9c0-3,0.7-5.3,2-7.1s3.1-2.6,5.4-2.6c2.6,0,4.5,1,5.9,3V96.6h2.1v27h-2l-0.1-2.5
		c-1.3,1.9-3.3,2.9-5.9,2.9c-2.2,0-4-0.9-5.3-2.6s-2-4.1-2-7.1V113.9z M347.7,114.3c0,2.4,0.5,4.3,1.5,5.7s2.3,2.1,4.1,2.1
		c2.6,0,4.4-1.1,5.5-3.4v-8.9c-1.1-2.5-2.9-3.7-5.5-3.7c-1.8,0-3.1,0.7-4.1,2.1S347.7,111.6,347.7,114.3z"/>
	<path id="XMLID_203_" class="st0" d="M373.8,123.9c-1.6,0-3.1-0.4-4.4-1.2s-2.3-1.9-3-3.3s-1.1-3-1.1-4.8v-0.8
		c0-1.8,0.4-3.5,1.1-4.9s1.7-2.6,3-3.5s2.6-1.3,4.1-1.3c2.3,0,4.1,0.8,5.5,2.4s2,3.7,2,6.5v1.2h-13.6v0.4c0,2.2,0.6,4,1.9,5.4
		s2.8,2.2,4.7,2.2c1.1,0,2.1-0.2,3-0.6s1.6-1.1,2.3-2l1.3,1C378.9,122.8,376.7,123.9,373.8,123.9z M373.4,106c-1.6,0-2.9,0.6-4,1.7
		s-1.7,2.7-2,4.7h11.4v-0.2c-0.1-1.8-0.6-3.3-1.6-4.5S375,106,373.4,106z"/>
	<path id="XMLID_206_" class="st0" d="M393.8,106.4c-0.4-0.1-0.9-0.1-1.4-0.1c-1.3,0-2.4,0.4-3.3,1.1s-1.6,1.8-1.9,3.2v13.1H385v-19
		h2.1l0,3c1.1-2.3,2.9-3.4,5.4-3.4c0.6,0,1,0.1,1.4,0.2L393.8,106.4z"/>
</g>
<g id="XMLID_2_">
	<polygon id="XMLID_33_" class="st1" points="85,122.9 84,134 34.3,134 33.3,122.9 	"/>
	<path id="XMLID_32_" class="st2" d="M88.7,79.1L85,122.9H33.3l-3.7-43.8c2.9-1,3.8-3.6,8.1-3.6c5.4,0,5.4,4,10.7,4s5.4-4,10.7-4
		c5.4,0,5.4,4,10.7,4c5.4,0,5.4-4,10.7-4C84.9,75.5,85.7,78,88.7,79.1z"/>
	<path id="XMLID_31_" class="st3" d="M90.4,58.8l-1.7,20.2c-2.9-1-3.8-3.6-8.1-3.6c-5.4,0-5.4,4-10.7,4c-5.4,0-5.4-4-10.7-4
		s-5.4,4-10.7,4s-5.4-4-10.7-4c-4.3,0-5.1,2.6-8.1,3.6l-1.7-20.2H90.4z"/>
	<rect id="XMLID_30_" x="23.7" y="50.5" class="st4" width="70.8" height="8.3"/>
	<path id="XMLID_29_" class="st5" d="M80.2,50.5H37.5c0-5.7,4.7-10.4,10.4-10.4c0.2,0,0.5,0,0.7,0c1-4.8,5.2-8.4,10.2-8.4
		s9.3,3.6,10.2,8.4c0.2,0,0.5,0,0.7,0C75.5,40.1,80.2,44.8,80.2,50.5z"/>
	<g id="XMLID_26_">
		<path id="XMLID_28_" class="st3" d="M58.9,21.6v10.2c-5,0-9.3,3.6-10.2,8.4c-0.2,0-0.5,0-0.7,0c-5.7,0-10.4,4.7-10.4,10.4h-9.9
			c0-13.1,8.1-24.3,19.5-28.9C47.1,21.6,58.9,21.6,58.9,21.6z"/>
		<path id="XMLID_27_" class="st3" d="M90.1,50.5h-9.9c0-5.7-4.7-10.4-10.4-10.4c-0.2,0-0.5,0-0.7,0c-1-4.8-5.2-8.4-10.2-8.4V21.6
			h11.8C82,26.2,90.1,37.4,90.1,50.5z"/>
	</g>
	<g id="XMLID_18_">
		<path id="XMLID_25_" class="st6" d="M37.7,77.6c2,0,2.9,0.7,4.1,1.6c1.4,1.1,3.2,2.4,6.6,2.4c3.4,0,5.2-1.3,6.6-2.4
			c1.2-0.9,2.1-1.6,4.1-1.6c2,0,2.9,0.7,4.1,1.6c1.4,1.1,3.2,2.4,6.6,2.4c3.4,0,5.2-1.3,6.6-2.4c1.2-0.9,2.1-1.6,4.1-1.6
			c1.1,0,2.1-0.9,2.1-2.1c0-1.1-0.9-2.1-2.1-2.1c-3.4,0-5.2,1.3-6.6,2.4c-1.2,0.9-2.1,1.6-4.1,1.6s-2.9-0.7-4.1-1.6
			c-1.4-1.1-3.2-2.4-6.6-2.4c-3.4,0-5.2,1.3-6.6,2.4c-1.2,0.9-2.1,1.6-4.1,1.6c-2,0-2.9-0.7-4.1-1.6c-1.4-1.1-3.2-2.4-6.6-2.4
			c-1.1,0-2.1,0.9-2.1,2.1C35.6,76.6,36.5,77.6,37.7,77.6z"/>
		<path id="XMLID_19_" d="M94.5,48.4h-2.4c-0.8-12.8-8.7-23.9-20.7-28.8c-0.2-0.1-0.5-0.2-0.8-0.2h-9.7v-7.6c0-1.1,0.9-2.1,2.1-2.1
			h12.5c1.1,0,2.1-0.9,2.1-2.1s-0.9-2.1-2.1-2.1H63c-3.4,0-6.2,2.8-6.2,6.2v7.6h-9.7c-0.3,0-0.5,0.1-0.8,0.2
			c-12,4.9-19.9,16-20.7,28.8h-1.9c-1.1,0-2.1,0.9-2.1,2.1v8.3c0,1.1,0.9,2.1,2.1,2.1H26l5.3,62.2c0,0,0.9,11.1,0.9,11.1
			c0.1,1.1,1,1.9,2.1,1.9H84c1.1,0,2-0.8,2.1-1.9l6.2-73.3h2.3c1.1,0,2.1-0.9,2.1-2.1v-8.3C96.6,49.3,95.7,48.4,94.5,48.4z
			 M47.5,23.6h9.3v6.2c-4.5,0.8-8.2,3.9-9.7,8.2c-5.8,0.4-10.5,4.8-11.5,10.4h-5.8C30.5,37.5,37.3,27.9,47.5,23.6z M58.9,33.8
			c4,0,7.4,2.8,8.2,6.7c0.2,1,1.1,1.7,2.2,1.7c0.2,0,0.4,0,0.6,0c3.9,0,7.1,2.7,8.1,6.2h-38c0.9-3.6,4.2-6.2,8.1-6.2
			c0.2,0,0.4,0,0.6,0c1,0.1,2-0.6,2.2-1.7C51.5,36.7,54.9,33.8,58.9,33.8z M82.1,131.9H36.2l-0.6-6.9h41c1.1,0,2.1-0.9,2.1-2.1
			c0-1.1-0.9-2.1-2.1-2.1H35.2l-5.1-59.9h57.9L82.1,131.9z M92.4,56.7h-2.1c0,0-64.5,0-64.5,0v-4.2h55.9c1.1,0,2.1-0.9,2.1-2.1
			c0-1-0.7-1.9-1.7-2c-0.9-5.6-5.7-10-11.5-10.4c-1.5-4.3-5.2-7.4-9.7-8.2v-6.2h9.3C81,28.2,88,38.7,88,50.5c0,1.1,0.9,2.1,2.1,2.1
			h2.4L92.4,56.7L92.4,56.7z"/>
	</g>
	<g id="XMLID_17_">
	</g>
	<g id="XMLID_16_">
	</g>
	<g id="XMLID_15_">
	</g>
	<g id="XMLID_14_">
	</g>
	<g id="XMLID_13_">
	</g>
	<g id="XMLID_12_">
	</g>
	<g id="XMLID_11_">
	</g>
	<g id="XMLID_10_">
	</g>
	<g id="XMLID_9_">
	</g>
	<g id="XMLID_8_">
	</g>
	<g id="XMLID_7_">
	</g>
	<g id="XMLID_6_">
	</g>
	<g id="XMLID_5_">
	</g>
	<g id="XMLID_4_">
	</g>
	<g id="XMLID_3_">
	</g>
</g>
<path id="XMLID_34_" class="st7" d="M405.5,165.9H16.8c-6.6,0-12-5.4-12-12v-158c0-6.6,5.4-12,12-12h388.7c6.6,0,12,5.4,12,12v158
	C417.5,160.5,412.1,165.9,405.5,165.9z"/>
<g id="XMLID_139_">
</g>
<g id="XMLID_208_">
</g>
<g id="XMLID_209_">
</g>
<g id="XMLID_210_">
</g>
<g id="XMLID_211_">
</g>
<g id="XMLID_212_">
</g>
<g id="XMLID_213_">
</g>
<g id="XMLID_214_">
</g>
<g id="XMLID_215_">
</g>
<g id="XMLID_216_">
</g>
<g id="XMLID_217_">
</g>
<g id="XMLID_218_">
</g>
<g id="XMLID_219_">
</g>
<g id="XMLID_220_">
</g>
<g id="XMLID_221_">
</g>
</svg>
