<?xml version="1.0" encoding="utf-8"?>
<!-- Generator: Adobe Illustrator 19.0.0, SVG Export Plug-In . SVG Version: 6.00 Build 0)  -->
<svg version="1.1" id="Layer_1" xmlns="http://www.w3.org/2000/svg" xmlns:xlink="http://www.w3.org/1999/xlink" x="0px" y="0px"
	 viewBox="-223 25 512 512" style="enable-background:new -223 25 512 512;" xml:space="preserve">
<style type="text/css">
	.st0{fill:#8E4238;}
	.st1{fill:#C67741;}
	.st2{fill:#F9EBDB;}
	.st3{fill:#E8D6BD;}
	.st4{fill:#FFFFFF;}
	.st5{fill:#700D00;}
	.st6{stroke:#FFFFFF;stroke-miterlimit:10;}
</style>
<polygon class="st0" points="134.3,485.3 130.6,528.8 -64.6,528.8 -68.3,485.3 "/>
<path class="st1" d="M148.8,313.3l-14.5,171.9H-68.3l-14.5-171.9c11.4-4,14.8-14.1,31.6-14.1c21.1,0,21.1,15.7,42.1,15.7
	s21.1-15.7,42.1-15.7c21.1,0,21.1,15.7,42.1,15.7c21.1,0,21.1-15.7,42.1-15.7C134,299.2,137.4,309.3,148.8,313.3z"/>
<path class="st2" d="M155.6,233.9l-6.7,79.4c-11.4-4-14.8-14.1-31.6-14.1c-21.1,0-21.1,15.7-42.1,15.7c-21.1,0-21.1-15.7-42.1-15.7
	S11.9,315-9.1,315s-21.1-15.7-42.1-15.7c-16.8,0-20.2,10-31.6,14.1l-6.7-79.4H155.6z"/>
<rect x="-105.9" y="201.2" class="st3" width="277.8" height="32.7"/>
<path class="st4" d="M115.7,201.2H-51.9c0-22.6,18.3-40.9,40.9-40.9c1,0,1.9,0,2.9,0.1c3.7-18.7,20.3-32.8,40.1-32.8
	s36.3,14.1,40.1,32.8c0.9-0.1,1.9-0.1,2.9-0.1C97.4,160.3,115.7,178.6,115.7,201.2z"/>
<g>
	<path class="st2" d="M31.9,87.6v40c-19.8,0-36.3,14.1-40.1,32.8c-0.9-0.1-1.9-0.1-2.9-0.1c-22.6,0-40.9,18.3-40.9,40.9h-38.8
		c0-51.4,31.6-95.3,76.4-113.6C-14.3,87.6,31.9,87.6,31.9,87.6z"/>
	<path class="st2" d="M154.5,201.2h-38.8c0-22.6-18.3-40.9-40.9-40.9c-1,0-1.9,0-2.9,0.1c-3.7-18.7-20.3-32.8-40.1-32.8v-40h46.2
		C122.9,105.9,154.5,149.8,154.5,201.2z"/>
</g>
<g>
	<path class="st5" d="M-51.2,307.4c7.8,0,11.3,2.6,16.2,6.2c5.7,4.2,12.7,9.5,25.9,9.5c13.2,0,20.3-5.3,25.9-9.5
		c4.8-3.6,8.4-6.2,16.2-6.2c7.8,0,11.3,2.6,16.2,6.2c5.7,4.2,12.7,9.5,26,9.5c13.2,0,20.3-5.3,26-9.5c4.9-3.6,8.4-6.2,16.2-6.2
		c4.5,0,8.2-3.7,8.2-8.2s-3.7-8.2-8.2-8.2c-13.2,0-20.3,5.3-26,9.5c-4.9,3.6-8.4,6.2-16.2,6.2s-11.3-2.6-16.2-6.2
		c-5.7-4.2-12.7-9.5-26-9.5c-13.2,0-20.3,5.3-25.9,9.5c-4.8,3.6-8.4,6.2-16.2,6.2s-11.3-2.6-16.2-6.2c-5.7-4.2-12.7-9.5-25.9-9.5
		c-4.5,0-8.2,3.7-8.2,8.2S-55.7,307.4-51.2,307.4z"/>
	<path class="st6" d="M171.9,193h-9.5c-3.1-50.1-34.3-93.8-81.2-112.9c-1-0.4-2-0.6-3.1-0.6h-38v-30c0-4.5,3.7-8.2,8.2-8.2h49
		c4.5,0,8.2-3.7,8.2-8.2s-3.7-8.2-8.2-8.2h-49c-13.5,0-24.5,11-24.5,24.5v30h-38c-1.1,0-2.1,0.2-3.1,0.6
		C-64.3,99.2-95.5,143-98.6,193h-7.3c-4.5,0-8.2,3.7-8.2,8.2v32.7c0,4.5,3.7,8.2,8.2,8.2h8.8l20.6,244c0,0,3.7,43.4,3.7,43.4
		c0.4,4.2,3.9,7.5,8.1,7.5h195.3c4.2,0,7.8-3.3,8.1-7.5L163.1,242h8.8c4.5,0,8.2-3.7,8.2-8.2v-32.7C180.1,196.7,176.4,193,171.9,193
		z M-12.6,95.8h36.4v24.4c-17.5,3-32.2,15.3-38.1,32.1c-22.7,1.5-41.3,18.7-45,40.7h-22.8C-79.2,150.2-52.6,112.7-12.6,95.8z
		 M31.9,135.8c15.5,0,29,11,32,26.2c0.8,4,4.5,6.8,8.6,6.5c0.9-0.1,1.6-0.1,2.3-0.1c15.2,0,28,10.4,31.6,24.5H-42.7
		c3.6-14.1,16.4-24.5,31.6-24.5c0.7,0,1.4,0,2.3,0.1c4.1,0.3,7.8-2.5,8.6-6.5C2.9,146.9,16.4,135.8,31.9,135.8z M123.1,520.7H-57.1
		l-2.3-27.2h161c4.5,0,8.2-3.7,8.2-8.2c0-4.5-3.7-8.2-8.2-8.2H-60.8l-19.9-235h227.3L123.1,520.7z M163.7,225.7h-8.3
		c0,0-253.1,0-253.1,0v-16.3h219.5c4.5,0,8.2-3.7,8.2-8.2c0-4-2.9-7.4-6.8-8c-3.7-22.1-22.2-39.3-45-40.9
		c-5.9-16.8-20.6-29.1-38.1-32.1V95.8h36.4c42.5,18,69.8,59.2,69.8,105.4c0,4.5,3.7,8.2,8.2,8.2h9.3L163.7,225.7L163.7,225.7z"/>
</g>
</svg>
