<?xml version="1.0" encoding="utf-8"?>
<!-- Generator: Adobe Illustrator 26.0.3, SVG Export Plug-In . SVG Version: 6.00 Build 0)  -->
<svg version="1.1" id="Layer_1" xmlns="http://www.w3.org/2000/svg" xmlns:xlink="http://www.w3.org/1999/xlink" x="0px" y="0px"
	 viewBox="0 0 512 512" style="enable-background:new 0 0 512 512;" xml:space="preserve">
<style type="text/css">
	.st0{fill:#8E4238;}
	.st1{fill:#C67741;}
	.st2{fill:#F9EBDB;}
	.st3{fill:#E8D6BD;}
	.st4{fill:#FFFFFF;}
	.st5{fill:#700D00;}
</style>
<polygon class="st0" points="357.3,460.3 353.6,503.8 158.4,503.8 154.7,460.3 "/>
<path class="st1" d="M371.8,288.3l-14.5,171.9H154.7l-14.5-171.9c11.4-4,14.8-14.1,31.6-14.1c21.1,0,21.1,15.7,42.1,15.7
	s21.1-15.7,42.1-15.7c21.1,0,21.1,15.7,42.1,15.7c21.1,0,21.1-15.7,42.1-15.7C357,274.2,360.4,284.3,371.8,288.3z"/>
<path class="st2" d="M378.6,208.9l-6.7,79.4c-11.4-4-14.8-14.1-31.6-14.1c-21.1,0-21.1,15.7-42.1,15.7c-21.1,0-21.1-15.7-42.1-15.7
	S234.9,290,213.9,290s-21.1-15.7-42.1-15.7c-16.8,0-20.2,10-31.6,14.1l-6.7-79.4h245.1V208.9z"/>
<rect x="117.1" y="176.2" class="st3" width="277.8" height="32.7"/>
<path class="st4" d="M338.7,176.2H171.1c0-22.6,18.3-40.9,40.9-40.9c1,0,1.9,0,2.9,0.1c3.7-18.7,20.3-32.8,40.1-32.8
	s36.3,14.1,40.1,32.8c0.9-0.1,1.9-0.1,2.9-0.1C320.4,135.3,338.7,153.6,338.7,176.2z"/>
<g>
	<path class="st2" d="M254.9,62.6v40c-19.8,0-36.3,14.1-40.1,32.8c-0.9-0.1-1.9-0.1-2.9-0.1c-22.6,0-40.9,18.3-40.9,40.9h-38.8
		c0-51.4,31.6-95.3,76.4-113.6C208.7,62.6,254.9,62.6,254.9,62.6z"/>
	<path class="st2" d="M377.5,176.2h-38.8c0-22.6-18.3-40.9-40.9-40.9c-1,0-1.9,0-2.9,0.1c-3.7-18.7-20.3-32.8-40.1-32.8v-40H301
		C345.9,80.9,377.5,124.8,377.5,176.2z"/>
</g>
<g>
	<path class="st5" d="M171.8,282.4c7.8,0,11.3,2.6,16.2,6.2c5.7,4.2,12.7,9.5,25.9,9.5c13.2,0,20.3-5.3,25.9-9.5
		c4.8-3.6,8.4-6.2,16.2-6.2c7.8,0,11.3,2.6,16.2,6.2c5.7,4.2,12.7,9.5,26,9.5c13.2,0,20.3-5.3,26-9.5c4.9-3.6,8.4-6.2,16.2-6.2
		c4.5,0,8.2-3.7,8.2-8.2s-3.7-8.2-8.2-8.2c-13.2,0-20.3,5.3-26,9.5c-4.9,3.6-8.4,6.2-16.2,6.2c-7.8,0-11.3-2.6-16.2-6.2
		c-5.7-4.2-12.7-9.5-26-9.5c-13.2,0-20.3,5.3-25.9,9.5c-4.8,3.6-8.4,6.2-16.2,6.2s-11.3-2.6-16.2-6.2c-5.7-4.2-12.7-9.5-25.9-9.5
		c-4.5,0-8.2,3.7-8.2,8.2S167.3,282.4,171.8,282.4z"/>
	<path d="M394.9,168h-9.5c-3.1-50.1-34.3-93.8-81.2-112.9c-1-0.4-2-0.6-3.1-0.6h-38v-30c0-4.5,3.7-8.2,8.2-8.2h49
		c4.5,0,8.2-3.7,8.2-8.2s-3.7-8.2-8.2-8.2h-49c-13.5,0-24.5,11-24.5,24.5v30h-38c-1.1,0-2.1,0.2-3.1,0.6c-47,19.2-78.2,63-81.3,113
		h-7.3c-4.5,0-8.2,3.7-8.2,8.2v32.7c0,4.5,3.7,8.2,8.2,8.2h8.8l20.6,244l3.7,43.4c0.4,4.2,3.9,7.5,8.1,7.5h195.3
		c4.2,0,7.8-3.3,8.1-7.5L386.1,217h8.8c4.5,0,8.2-3.7,8.2-8.2v-32.7C403.1,171.7,399.4,168,394.9,168z M210.4,70.8h36.4v24.4
		c-17.5,3-32.2,15.3-38.1,32.1c-22.7,1.5-41.3,18.7-45,40.7h-22.8C143.8,125.2,170.4,87.7,210.4,70.8z M254.9,110.8
		c15.5,0,29,11,32,26.2c0.8,4,4.5,6.8,8.6,6.5c0.9-0.1,1.6-0.1,2.3-0.1c15.2,0,28,10.4,31.6,24.5H180.3
		c3.6-14.1,16.4-24.5,31.6-24.5c0.7,0,1.4,0,2.3,0.1c4.1,0.3,7.8-2.5,8.6-6.5C225.9,121.9,239.4,110.8,254.9,110.8z M346.1,495.7
		H165.9l-2.3-27.2h161c4.5,0,8.2-3.7,8.2-8.2s-3.7-8.2-8.2-8.2H162.2l-19.9-235h227.3L346.1,495.7z M386.7,200.7h-8.3H125.3v-16.3
		h219.5c4.5,0,8.2-3.7,8.2-8.2c0-4-2.9-7.4-6.8-8c-3.7-22.1-22.2-39.3-45-40.9c-5.9-16.8-20.6-29.1-38.1-32.1V70.8h36.4
		c42.5,18,69.8,59.2,69.8,105.4c0,4.5,3.7,8.2,8.2,8.2h9.3L386.7,200.7L386.7,200.7z"/>
</g>
</svg>
