<?xml version="1.0" encoding="utf-8"?>
<!-- Generator: Adobe Illustrator 26.0.3, SVG Export Plug-In . SVG Version: 6.00 Build 0)  -->
<svg version="1.1" id="Layer_1" xmlns="http://www.w3.org/2000/svg" xmlns:xlink="http://www.w3.org/1999/xlink" x="0px" y="0px"
	 viewBox="0 0 422 141.3" style="enable-background:new 0 0 422 141.3;" xml:space="preserve">
<style type="text/css">
	.st0{fill:#999999;}
	.st1{fill:#8E4238;}
	.st2{fill:#C67741;}
	.st3{fill:#F9EBDB;}
	.st4{fill:#E8D6BD;}
	.st5{fill:#FFFFFF;}
	.st6{fill:#700D00;}
	.st7{display:none;fill:none;stroke:#111111;stroke-width:4;stroke-miterlimit:10;}
</style>
<g id="XMLID_1_">
	<path d="M127.8,78.3c-4.5,0-8.3-1.7-11.3-5.2c-3.1-3.5-4.6-7.8-4.6-13.1v-2.2c0-5.5,1.5-10,4.6-13.6s6.9-5.3,11.5-5.3
		c4.2,0,7.6,1.4,10.1,4.2c2.5,2.8,3.8,6.6,3.8,11.4v2.9h-28.1v0.5V60c0,4.6,1.3,8.5,3.9,11.7c2.6,3.2,6,4.7,10.1,4.7
		c2.3,0,4.5-0.4,6.6-1.3c2.1-0.8,3.8-2,5.1-3.4l1,1.5c-1.3,1.5-3.1,2.7-5.2,3.6S130.7,78.3,127.8,78.3z M128,40.7
		c-3.9,0-7.2,1.4-9.7,4.1c-2.5,2.7-3.9,6.2-4.3,10.4l0.1,0.2h25.8v-1.2c0-3.9-1.1-7.1-3.2-9.7C134.6,42,131.7,40.7,128,40.7z"/>
	<path d="M152.6,39.5l0.2,7.7c1.2-2.6,2.9-4.7,5.1-6.2c2.2-1.5,4.9-2.2,8.1-2.2c4.1,0,7.3,1.3,9.3,3.9c2.1,2.6,3.1,6.8,3.1,12.4
		v22.4h-1.9V55.1c0-5.3-0.9-9-2.8-11.1c-1.9-2.2-4.4-3.2-7.7-3.2c-4,0-7,1.2-9.1,3.5s-3.5,5.3-4,9v24.4H151V58.1h-0.1
		c0-0.4,0-0.9,0-1.4c0-0.5,0-0.9,0.1-1.4V39.5H152.6z"/>
	<path d="M190.3,77.6V47.8h-5.5v-8.2h5.5v-3.9c0-4.4,1.3-7.7,3.9-10.1c2.6-2.4,6.3-3.5,11.1-3.5c0.9,0,1.8,0.1,2.8,0.2
		c0.9,0.1,2,0.3,3.1,0.5l-0.9,8.8c-0.7-0.1-1.2-0.2-1.7-0.3c-0.5-0.1-1.1-0.1-1.8-0.1c-1.5,0-2.6,0.4-3.4,1.2
		c-0.8,0.8-1.2,1.9-1.2,3.3v3.9h7.5v8.2h-7.5v29.8H190.3z"/>
	<path d="M234.5,49.7l-3.9,0c-1.4,0-2.5,0.3-3.3,0.8c-0.9,0.5-1.5,1.2-1.9,2.1v25.1h-11.9v-38h11.2l0.4,5.6c0.8-2,1.9-3.5,3.2-4.6
		c1.3-1.1,2.8-1.7,4.6-1.7c0.5,0,1,0,1.4,0.1s0.9,0.2,1.3,0.3L234.5,49.7z"/>
	<path d="M260.9,77.6c-0.4-0.8-0.8-1.7-1.1-2.7s-0.6-2.1-0.7-3.2c-1,2-2.3,3.6-3.8,4.8s-3.5,1.8-5.9,1.8c-4,0-7.1-1-9.3-3.1
		s-3.3-4.8-3.3-8.4c0-3.8,1.4-6.7,4.3-8.7c2.8-2.1,7.1-3.1,12.9-3.1h4.9v-2.7c0-1.6-0.4-2.9-1.2-3.7c-0.8-0.9-2-1.3-3.6-1.3
		c-1.4,0-2.4,0.3-3.1,1c-0.7,0.6-1,1.6-1,3l-11.5,0l-0.1-0.2c-0.2-3.5,1.3-6.4,4.3-8.7c3.1-2.3,7.1-3.5,12.1-3.5
		c4.7,0,8.5,1.2,11.4,3.5c2.9,2.3,4.4,5.7,4.4,10.1v14.3c0,2,0.2,3.9,0.5,5.6s0.8,3.5,1.5,5.2L260.9,77.6z M252.5,69.9
		c1.5,0,2.7-0.3,3.8-1s1.9-1.5,2.3-2.4v-5h-4.8c-1.9,0-3.3,0.5-4.1,1.4s-1.3,2.1-1.3,3.5c0,1.1,0.4,2,1.1,2.6S251.3,69.9,252.5,69.9
		z"/>
	<path d="M312.3,59.4c0,5.7-1.3,10.3-3.9,13.8s-6.2,5.2-10.9,5.2c-1.8,0-3.5-0.4-4.9-1.1s-2.7-1.7-3.7-3.1v18h-11.9V39.5h11.2
		l0.4,4.1c1.1-1.5,2.3-2.7,3.8-3.6s3.1-1.3,5-1.3c4.7,0,8.4,1.8,11,5.4c2.6,3.6,3.9,8.4,3.9,14.3V59.4z M300.5,58.6
		c0-3.2-0.5-5.8-1.4-7.7c-0.9-1.9-2.4-2.9-4.5-2.9c-1.3,0-2.5,0.2-3.4,0.7s-1.7,1.2-2.2,2.1v15.9c0.6,0.8,1.3,1.4,2.2,1.8
		s2.1,0.6,3.4,0.6c2.1,0,3.6-0.9,4.5-2.6s1.4-4.1,1.4-7.2V58.6z"/>
	<path d="M352.8,59.4c0,5.7-1.3,10.3-3.9,13.8s-6.2,5.2-10.9,5.2c-1.8,0-3.5-0.4-4.9-1.1s-2.7-1.7-3.7-3.1v18h-11.9V39.5h11.2
		l0.4,4.1c1.1-1.5,2.3-2.7,3.8-3.6s3.1-1.3,5-1.3c4.7,0,8.4,1.8,11,5.4c2.6,3.6,3.9,8.4,3.9,14.3V59.4z M340.9,58.6
		c0-3.2-0.5-5.8-1.4-7.7c-0.9-1.9-2.4-2.9-4.5-2.9c-1.3,0-2.5,0.2-3.4,0.7s-1.7,1.2-2.2,2.1v15.9c0.6,0.8,1.3,1.4,2.2,1.8
		s2.1,0.6,3.4,0.6c2.1,0,3.6-0.9,4.5-2.6s1.4-4.1,1.4-7.2V58.6z"/>
	<path d="M374.9,78.3c-5.8,0-10.3-1.7-13.6-5.2s-4.9-7.9-4.9-13.3v-1.3c0-5.8,1.5-10.5,4.6-14.2s7.5-5.5,13.4-5.4
		c5.1,0,9.1,1.5,11.9,4.6c2.8,3.1,4.2,7.3,4.2,12.6v6.2h-21.8l-0.1,0.2c0.2,2,0.9,3.6,2.2,4.8s3.1,1.8,5.6,1.8
		c2.3,0,4.2-0.2,5.7-0.6s3.2-1,5.2-1.8l2.8,7.2c-1.6,1.2-3.8,2.2-6.6,3S377.9,78.3,374.9,78.3z M375,23.2h13l0.1,0.2l-9.9,9.1h-10.5
		L375,23.2z M374.4,48c-1.9,0-3.3,0.6-4.2,1.8c-0.9,1.2-1.4,2.8-1.6,4.9l0.1,0.2H379V54c0-2-0.3-3.5-1-4.5
		C377.3,48.5,376.1,48,374.4,48z"/>
	<path class="st0" d="M120.4,123.6c-0.1-0.7-0.2-1.2-0.3-1.7s-0.1-1-0.1-1.5c-0.7,1-1.6,1.9-2.8,2.6s-2.5,1-4.1,1
		c-1.9,0-3.3-0.5-4.3-1.5s-1.5-2.3-1.5-4s0.7-3.1,2.2-4.1s3.4-1.6,5.8-1.6h4.7v-2.4c0-1.4-0.4-2.4-1.3-3.2s-2.1-1.2-3.6-1.2
		c-1.4,0-2.6,0.4-3.5,1.1s-1.3,1.6-1.3,2.7h-2l0-0.1c-0.1-1.4,0.5-2.7,1.8-3.8s3-1.6,5.1-1.6s3.8,0.5,5,1.6s1.9,2.6,1.9,4.6v9.4
		c0,0.7,0,1.3,0.1,2s0.2,1.3,0.4,1.9H120.4z M113.4,122.1c1.6,0,3-0.4,4.2-1.2s2-1.8,2.4-3v-3.6h-4.7c-1.7,0-3.1,0.4-4.2,1.2
		s-1.7,1.8-1.7,2.9c0,1.1,0.4,1.9,1.1,2.6S112.1,122.1,113.4,122.1z"/>
	<path class="st0" d="M143,114.6c0,2.8-0.6,5.1-1.9,6.8s-3.1,2.5-5.3,2.5c-1.3,0-2.5-0.3-3.5-0.8s-1.8-1.2-2.5-2.1v9.8h-2.1v-26.3
		h1.6l0.4,3c0.6-1.1,1.5-1.9,2.5-2.5s2.2-0.9,3.6-0.9c2.3,0,4.1,0.9,5.4,2.7s1.9,4.3,1.9,7.3V114.6z M140.9,114.2
		c0-2.4-0.5-4.4-1.4-5.9s-2.4-2.3-4.2-2.3c-1.4,0-2.5,0.3-3.4,1s-1.6,1.5-2,2.6v9.2c0.5,1,1.2,1.8,2.1,2.4s2,0.9,3.4,0.9
		c1.8,0,3.2-0.7,4.2-2.1s1.4-3.2,1.4-5.5V114.2z"/>
	<path class="st0" d="M163,114.6c0,2.8-0.6,5.1-1.9,6.8s-3.1,2.5-5.3,2.5c-1.3,0-2.5-0.3-3.5-0.8s-1.8-1.2-2.5-2.1v9.8h-2.1v-26.3
		h1.6l0.4,3c0.6-1.1,1.5-1.9,2.5-2.5s2.2-0.9,3.6-0.9c2.3,0,4.1,0.9,5.4,2.7s1.9,4.3,1.9,7.3V114.6z M160.9,114.2
		c0-2.4-0.5-4.4-1.4-5.9s-2.4-2.3-4.2-2.3c-1.4,0-2.5,0.3-3.4,1s-1.6,1.5-2,2.6v9.2c0.5,1,1.2,1.8,2.1,2.4s2,0.9,3.4,0.9
		c1.8,0,3.2-0.7,4.2-2.1s1.4-3.2,1.4-5.5V114.2z"/>
	<path class="st0" d="M170.1,123.6H168V96.2h2.1V123.6z"/>
	<path class="st0" d="M178.3,99.1h-2.1v-3h2.1V99.1z M178.3,123.6h-2.1v-19h2.1V123.6z"/>
	<path class="st0" d="M191.1,122.2c1.3,0,2.5-0.4,3.6-1.2s1.6-1.9,1.6-3.3h1.9l0,0.1c0,1.8-0.6,3.2-2.1,4.4s-3.1,1.8-5,1.8
		c-2.5,0-4.5-0.9-5.9-2.7s-2.1-4.1-2.1-6.8v-0.7c0-2.8,0.7-5,2.1-6.8s3.4-2.7,5.9-2.7c2,0,3.7,0.6,5.1,1.8s2,2.8,2,4.9l0,0.1h-1.9
		c0-1.5-0.5-2.7-1.5-3.6s-2.2-1.4-3.7-1.4c-2,0-3.5,0.7-4.4,2.2s-1.5,3.3-1.5,5.5v0.7c0,2.2,0.5,4.1,1.5,5.5
		S189.1,122.2,191.1,122.2z"/>
	<path class="st0" d="M214.7,123.6c-0.1-0.7-0.2-1.2-0.3-1.7s-0.1-1-0.1-1.5c-0.7,1-1.6,1.9-2.8,2.6s-2.5,1-4.1,1
		c-1.9,0-3.3-0.5-4.3-1.5s-1.5-2.3-1.5-4s0.7-3.1,2.2-4.1s3.4-1.6,5.8-1.6h4.7v-2.4c0-1.4-0.4-2.4-1.3-3.2s-2.1-1.2-3.6-1.2
		c-1.4,0-2.6,0.4-3.5,1.1s-1.3,1.6-1.3,2.7h-2l0-0.1c-0.1-1.4,0.5-2.7,1.8-3.8s3-1.6,5.1-1.6s3.8,0.5,5,1.6s1.9,2.6,1.9,4.6v9.4
		c0,0.7,0,1.3,0.1,2s0.2,1.3,0.4,1.9H214.7z M207.7,122.1c1.6,0,3-0.4,4.2-1.2s2-1.8,2.4-3v-3.6h-4.7c-1.7,0-3.1,0.4-4.2,1.2
		s-1.7,1.8-1.7,2.9c0,1.1,0.4,1.9,1.1,2.6S206.5,122.1,207.7,122.1z"/>
	<path class="st0" d="M225.3,99.7v4.9h4.2v1.7h-4.2v12.4c0,1.2,0.2,2.1,0.7,2.6s1.1,0.8,1.8,0.8c0.3,0,0.5,0,0.7,0s0.5-0.1,0.9-0.1
		l0.3,1.6c-0.3,0.1-0.6,0.3-1,0.3s-0.8,0.1-1.2,0.1c-1.3,0-2.4-0.4-3.1-1.3s-1.1-2.2-1.1-4v-12.4h-3.3v-1.7h3.3v-4.9H225.3z"/>
	<path class="st0" d="M235.9,99.1h-2.1v-3h2.1V99.1z M235.9,123.6h-2.1v-19h2.1V123.6z"/>
	<path class="st0" d="M240.6,113.8c0-2.8,0.8-5.1,2.3-6.9s3.6-2.7,6.1-2.7c2.5,0,4.6,0.9,6.1,2.7s2.3,4.1,2.3,6.9v0.6
		c0,2.8-0.8,5.1-2.3,6.9s-3.6,2.7-6.1,2.7c-2.6,0-4.6-0.9-6.1-2.7s-2.3-4.1-2.3-6.9V113.8z M242.7,114.4c0,2.2,0.6,4.1,1.7,5.6
		s2.7,2.2,4.7,2.2c2,0,3.5-0.8,4.6-2.2s1.7-3.4,1.7-5.6v-0.6c0-2.2-0.6-4-1.7-5.5S251,106,249,106s-3.5,0.8-4.6,2.3
		s-1.7,3.4-1.7,5.5V114.4z"/>
	<path class="st0" d="M263.7,104.6l0.2,3.3c0.6-1.2,1.4-2.1,2.5-2.7s2.3-1,3.7-1c2.1,0,3.6,0.6,4.7,1.9s1.6,3.2,1.6,5.9v11.6h-2.1
		V112c0-2.2-0.4-3.7-1.2-4.6s-2-1.4-3.5-1.4s-2.7,0.4-3.6,1.1s-1.6,1.7-2,3v13.5h-2.1v-19H263.7z"/>
	<path class="st0" d="M305.9,114.6c0,2.8-0.6,5.1-1.9,6.8s-3.1,2.5-5.3,2.5c-1.4,0-2.6-0.3-3.6-0.8s-1.8-1.4-2.5-2.4l-0.4,2.8h-1.7
		V96.2h2.1v11.3c0.6-1,1.4-1.8,2.4-2.4s2.2-0.9,3.5-0.9c2.3,0,4.1,0.9,5.4,2.7s1.9,4.3,1.9,7.3V114.6z M303.8,114.2
		c0-2.4-0.5-4.4-1.4-5.9s-2.3-2.3-4.2-2.3c-1.5,0-2.6,0.4-3.5,1.1s-1.6,1.6-2,2.8v8.7c0.5,1.1,1.2,2,2.1,2.6s2.1,1,3.5,1
		c1.8,0,3.2-0.7,4.1-2s1.4-3.2,1.4-5.5V114.2z"/>
	<path class="st0" d="M323.1,120.5c-0.6,1.1-1.4,2-2.5,2.6s-2.2,0.9-3.6,0.9c-2,0-3.6-0.7-4.7-2s-1.7-3.5-1.7-6.3v-11h2.1v11.1
		c0,2.3,0.4,4,1.2,5s1.9,1.5,3.4,1.5c1.6,0,2.8-0.4,3.8-1.1s1.6-1.7,2-2.9v-13.6h2.1v19h-1.9L323.1,120.5z"/>
	<path class="st0" d="M333,99.1h-2.1v-3h2.1V99.1z M333,123.6h-2.1v-19h2.1V123.6z"/>
	<path class="st0" d="M341.2,123.6h-2.1V96.2h2.1V123.6z"/>
	<path class="st0" d="M346.2,114.2c0-3,0.6-5.5,1.9-7.3s3.1-2.7,5.4-2.7c1.3,0,2.4,0.3,3.4,0.8s1.8,1.3,2.4,2.3V96.2h2.1v27.4h-1.7
		l-0.3-2.8c-0.6,1-1.5,1.8-2.5,2.3s-2.2,0.8-3.5,0.8c-2.3,0-4.1-0.8-5.3-2.5s-1.9-4-1.9-6.8V114.2z M348.3,114.6
		c0,2.3,0.5,4.1,1.4,5.5s2.3,2,4.2,2c1.4,0,2.5-0.3,3.4-0.9s1.6-1.4,2.1-2.5v-9c-0.5-1.1-1.2-2-2-2.6s-2-1-3.4-1
		c-1.9,0-3.2,0.8-4.2,2.3s-1.4,3.5-1.4,5.9V114.6z"/>
	<path class="st0" d="M374.3,124c-2.5,0-4.5-0.9-6-2.6s-2.3-4-2.3-6.7v-1c0-2.7,0.8-5,2.3-6.8s3.5-2.7,5.8-2.7
		c2.3,0,4.1,0.7,5.4,2.2s1.9,3.5,1.9,6v1.6h-13.2v0.6c0,2.2,0.5,4,1.6,5.4s2.6,2.1,4.5,2.1c1.2,0,2.2-0.2,3.2-0.6s1.8-0.9,2.4-1.5
		l0.9,1.4c-0.7,0.7-1.5,1.3-2.6,1.7S375.8,124,374.3,124z M374.1,106c-1.6,0-2.9,0.6-4,1.7s-1.7,2.6-1.8,4.4l0.1,0.1h10.9v-0.4
		c0-1.7-0.4-3.1-1.3-4.2S375.7,106,374.1,106z"/>
	<path class="st0" d="M394.3,106.4l-1.5-0.1c-1.3,0-2.4,0.4-3.3,1.1s-1.5,1.8-1.8,3.1v13.1h-2.1v-19h1.8l0.3,3.2v0.2
		c0.6-1.2,1.3-2.1,2.2-2.7s2-1,3.3-1c0.3,0,0.5,0,0.7,0.1s0.4,0.1,0.6,0.1L394.3,106.4z"/>
</g>
<g id="XMLID_2_">
	<polygon id="XMLID_33_" class="st1" points="85,122.9 84,134 34.3,134 33.3,122.9 	"/>
	<path id="XMLID_32_" class="st2" d="M88.7,79.1L85,122.9H33.3l-3.7-43.8c2.9-1,3.8-3.6,8.1-3.6c5.4,0,5.4,4,10.7,4s5.4-4,10.7-4
		c5.4,0,5.4,4,10.7,4c5.4,0,5.4-4,10.7-4C84.9,75.5,85.7,78,88.7,79.1z"/>
	<path id="XMLID_31_" class="st3" d="M90.4,58.8l-1.7,20.2c-2.9-1-3.8-3.6-8.1-3.6c-5.4,0-5.4,4-10.7,4c-5.4,0-5.4-4-10.7-4
		s-5.4,4-10.7,4s-5.4-4-10.7-4c-4.3,0-5.1,2.6-8.1,3.6l-1.7-20.2H90.4z"/>
	<rect id="XMLID_30_" x="23.7" y="50.5" class="st4" width="70.8" height="8.3"/>
	<path id="XMLID_29_" class="st5" d="M80.2,50.5H37.5c0-5.7,4.7-10.4,10.4-10.4c0.2,0,0.5,0,0.7,0c1-4.8,5.2-8.4,10.2-8.4
		s9.3,3.6,10.2,8.4c0.2,0,0.5,0,0.7,0C75.5,40.1,80.2,44.8,80.2,50.5z"/>
	<g id="XMLID_26_">
		<path id="XMLID_28_" class="st3" d="M58.9,21.6v10.2c-5,0-9.3,3.6-10.2,8.4c-0.2,0-0.5,0-0.7,0c-5.7,0-10.4,4.7-10.4,10.4h-9.9
			c0-13.1,8.1-24.3,19.5-28.9L58.9,21.6z"/>
		<path id="XMLID_27_" class="st3" d="M90.1,50.5h-9.9c0-5.7-4.7-10.4-10.4-10.4c-0.2,0-0.5,0-0.7,0c-1-4.8-5.2-8.4-10.2-8.4V21.6
			h11.8C82,26.2,90.1,37.4,90.1,50.5z"/>
	</g>
	<g id="XMLID_18_">
		<path id="XMLID_25_" class="st6" d="M37.7,77.6c2,0,2.9,0.7,4.1,1.6c1.4,1.1,3.2,2.4,6.6,2.4c3.4,0,5.2-1.3,6.6-2.4
			c1.2-0.9,2.1-1.6,4.1-1.6c2,0,2.9,0.7,4.1,1.6c1.4,1.1,3.2,2.4,6.6,2.4c3.4,0,5.2-1.3,6.6-2.4c1.2-0.9,2.1-1.6,4.1-1.6
			c1.1,0,2.1-0.9,2.1-2.1c0-1.1-0.9-2.1-2.1-2.1c-3.4,0-5.2,1.3-6.6,2.4c-1.2,0.9-2.1,1.6-4.1,1.6s-2.9-0.7-4.1-1.6
			c-1.4-1.1-3.2-2.4-6.6-2.4c-3.4,0-5.2,1.3-6.6,2.4c-1.2,0.9-2.1,1.6-4.1,1.6c-2,0-2.9-0.7-4.1-1.6c-1.4-1.1-3.2-2.4-6.6-2.4
			c-1.1,0-2.1,0.9-2.1,2.1C35.6,76.6,36.5,77.6,37.7,77.6z"/>
		<path id="XMLID_19_" d="M94.5,48.4h-2.4c-0.8-12.8-8.7-23.9-20.7-28.8c-0.2-0.1-0.5-0.2-0.8-0.2h-9.7v-7.6c0-1.1,0.9-2.1,2.1-2.1
			h12.5c1.1,0,2.1-0.9,2.1-2.1s-0.9-2.1-2.1-2.1H63c-3.4,0-6.2,2.8-6.2,6.2v7.6h-9.7c-0.3,0-0.5,0.1-0.8,0.2
			c-12,4.9-19.9,16-20.7,28.8h-1.9c-1.1,0-2.1,0.9-2.1,2.1v8.3c0,1.1,0.9,2.1,2.1,2.1H26l5.3,62.2c0,0,0.9,11.1,0.9,11.1
			c0.1,1.1,1,1.9,2.1,1.9H84c1.1,0,2-0.8,2.1-1.9l6.2-73.3h2.3c1.1,0,2.1-0.9,2.1-2.1v-8.3C96.6,49.3,95.7,48.4,94.5,48.4z
			 M47.5,23.6h9.3v6.2c-4.5,0.8-8.2,3.9-9.7,8.2c-5.8,0.4-10.5,4.8-11.5,10.4h-5.8C30.5,37.5,37.3,27.9,47.5,23.6z M58.9,33.8
			c4,0,7.4,2.8,8.2,6.7c0.2,1,1.1,1.7,2.2,1.7c0.2,0,0.4,0,0.6,0c3.9,0,7.1,2.7,8.1,6.2h-38c0.9-3.6,4.2-6.2,8.1-6.2
			c0.2,0,0.4,0,0.6,0c1,0.1,2-0.6,2.2-1.7C51.5,36.7,54.9,33.8,58.9,33.8z M82.1,131.9H36.2l-0.6-6.9h41c1.1,0,2.1-0.9,2.1-2.1
			c0-1.1-0.9-2.1-2.1-2.1H35.2l-5.1-59.9h57.9L82.1,131.9z M92.4,56.7h-2.1c0,0-64.5,0-64.5,0v-4.2h55.9c1.1,0,2.1-0.9,2.1-2.1
			c0-1-0.7-1.9-1.7-2c-0.9-5.6-5.7-10-11.5-10.4c-1.5-4.3-5.2-7.4-9.7-8.2v-6.2h9.3C81,28.2,88,38.7,88,50.5c0,1.1,0.9,2.1,2.1,2.1
			h2.4L92.4,56.7L92.4,56.7z"/>
	</g>
	<g id="XMLID_17_">
	</g>
	<g id="XMLID_16_">
	</g>
	<g id="XMLID_15_">
	</g>
	<g id="XMLID_14_">
	</g>
	<g id="XMLID_13_">
	</g>
	<g id="XMLID_12_">
	</g>
	<g id="XMLID_11_">
	</g>
	<g id="XMLID_10_">
	</g>
	<g id="XMLID_9_">
	</g>
	<g id="XMLID_8_">
	</g>
	<g id="XMLID_7_">
	</g>
	<g id="XMLID_6_">
	</g>
	<g id="XMLID_5_">
	</g>
	<g id="XMLID_4_">
	</g>
	<g id="XMLID_3_">
	</g>
</g>
<path id="XMLID_34_" class="st7" d="M405.5,165.9H16.8c-6.6,0-12-5.4-12-12v-158c0-6.6,5.4-12,12-12h388.7c6.6,0,12,5.4,12,12v158
	C417.5,160.5,412.1,165.9,405.5,165.9z"/>
<g>
</g>
<g>
</g>
<g>
</g>
<g>
</g>
<g>
</g>
<g>
</g>
<g>
</g>
<g>
</g>
<g>
</g>
<g>
</g>
<g>
</g>
<g>
</g>
<g>
</g>
<g>
</g>
<g>
</g>
</svg>
